<svg width="25" height="25" viewBox="0 0 25 25" fill="none" xmlns="http://www.w3.org/2000/svg">
<path d="M5.3125 17.5H7.1875V17.1875C7.1875 15.7083 7.70312 14.4531 8.73438 13.4219C9.76562 12.3906 11.0208 11.875 12.5 11.875C13.9792 11.875 15.2344 12.3906 16.2656 13.4219C17.2969 14.4531 17.8125 15.7083 17.8125 17.1875V17.5H19.6875V17.1875C19.6875 15.1875 18.9896 13.4896 17.5938 12.0938C16.1979 10.6979 14.5 10 12.5 10C10.5 10 8.80208 10.6979 7.40625 12.0938C6.01042 13.4896 5.3125 15.1875 5.3125 17.1875V17.5ZM6.375 9.0625C7.22917 8.9375 8.13021 8.60417 9.07812 8.0625C10.026 7.52083 10.7812 6.90625 11.3438 6.21875L9.90625 5.03125C9.48958 5.53125 8.91146 5.98958 8.17188 6.40625C7.43229 6.82292 6.75 7.08333 6.125 7.1875L6.375 9.0625ZM18.625 9.0625L18.875 7.1875C18.25 7.08333 17.5677 6.82292 16.8281 6.40625C16.0885 5.98958 15.5104 5.53125 15.0938 5.03125L13.6562 6.21875C14.2188 6.90625 14.974 7.52083 15.9219 8.0625C16.8698 8.60417 17.7708 8.9375 18.625 9.0625ZM12.5 25C10.7708 25 9.14583 24.6719 7.625 24.0156C6.10417 23.3594 4.78125 22.4688 3.65625 21.3438C2.53125 20.2188 1.64062 18.8958 0.984375 17.375C0.328125 15.8542 0 14.2292 0 12.5C0 10.7708 0.328125 9.14583 0.984375 7.625C1.64062 6.10417 2.53125 4.78125 3.65625 3.65625C4.78125 2.53125 6.10417 1.64062 7.625 0.984375C9.14583 0.328125 10.7708 0 12.5 0C14.2292 0 15.8542 0.328125 17.375 0.984375C18.8958 1.64062 20.2188 2.53125 21.3438 3.65625C22.4688 4.78125 23.3594 6.10417 24.0156 7.625C24.6719 9.14583 25 10.7708 25 12.5C25 14.2292 24.6719 15.8542 24.0156 17.375C23.3594 18.8958 22.4688 20.2188 21.3438 21.3438C20.2188 22.4688 18.8958 23.3594 17.375 24.0156C15.8542 24.6719 14.2292 25 12.5 25ZM12.5 23.125C15.4661 23.125 17.9785 22.0957 20.0371 20.0371C22.0957 17.9785 23.125 15.4661 23.125 12.5C23.125 9.53385 22.0957 7.02148 20.0371 4.96288C17.9785 2.90429 15.4661 1.875 12.5 1.875C9.53385 1.875 7.02148 2.90429 4.96287 4.96288C2.90429 7.02148 1.875 9.53385 1.875 12.5C1.875 15.4661 2.90429 17.9785 4.96287 20.0371C7.02148 22.0957 9.53385 23.125 12.5 23.125Z" fill="black"/>
</svg>
