<svg xmlns="http://www.w3.org/2000/svg" width="26" height="25" fill="none" viewBox="0 0 26 25"><path fill="#000" d="M7.3125 13.25L11.7813 10L7.3125 6.75L6.1875 8.25L8.59375 10L6.1875 11.75L7.3125 13.25ZM18.6875 13.25L19.8125 11.75L17.4063 10L19.8125 8.25L18.6875 6.75L14.2188 10L18.6875 13.25ZM11.125 18.8125L13 16.9375L14.875 18.8125L16.75 16.9375L17.9688 18.1563L19.2813 16.8438L16.75 14.3125L14.875 16.1875L13 14.3125L11.125 16.1875L9.25 14.3125L6.71875 16.8438L8.03125 18.1563L9.25 16.9375L11.125 18.8125ZM13 25C11.2708 25 9.64583 24.6719 8.125 24.0156C6.60417 23.3594 5.28125 22.4688 4.15625 21.3438C3.03125 20.2188 2.14063 18.8958 1.48438 17.375C0.828125 15.8542 0.5 14.2292 0.5 12.5C0.5 10.7708 0.828125 9.14583 1.48438 7.625C2.14063 6.10417 3.03125 4.78125 4.15625 3.65625C5.28125 2.53125 6.60417 1.64063 8.125 0.984375C9.64583 0.328125 11.2708 0 13 0C14.7292 0 16.3542 0.328125 17.875 0.984375C19.3958 1.64063 20.7188 2.53125 21.8438 3.65625C22.9688 4.78125 23.8594 6.10417 24.5156 7.625C25.1719 9.14583 25.5 10.7708 25.5 12.5C25.5 14.2292 25.1719 15.8542 24.5156 17.375C23.8594 18.8958 22.9688 20.2188 21.8438 21.3438C20.7188 22.4688 19.3958 23.3594 17.875 24.0156C16.3542 24.6719 14.7292 25 13 25ZM13 23.125C15.9661 23.125 18.4785 22.0957 20.5371 20.0371C22.5957 17.9785 23.625 15.4661 23.625 12.5C23.625 9.53386 22.5957 7.02148 20.5371 4.96288C18.4785 2.90429 15.9661 1.875 13 1.875C10.0339 1.875 7.52148 2.90429 5.46288 4.96288C3.40429 7.02148 2.375 9.53386 2.375 12.5C2.375 15.4661 3.40429 17.9785 5.46288 20.0371C7.52148 22.0957 10.0339 23.125 13 23.125Z"/></svg>