<svg xmlns="http://www.w3.org/2000/svg" width="26" height="25" fill="none" viewBox="0 0 26 25"><path fill="#000" d="M5.8125 17.5H7.6875V17.1875C7.6875 15.7083 8.20312 14.4531 9.23438 13.4219C10.2656 12.3906 11.5208 11.875 13 11.875C14.4792 11.875 15.7344 12.3906 16.7656 13.4219C17.7969 14.4531 18.3125 15.7083 18.3125 17.1875V17.5H20.1875V17.1875C20.1875 15.1875 19.4896 13.4896 18.0938 12.0938C16.6979 10.6979 15 10 13 10C11 10 9.30208 10.6979 7.90625 12.0938C6.51042 13.4896 5.8125 15.1875 5.8125 17.1875V17.5ZM6.875 9.0625C7.72917 8.9375 8.63021 8.60417 9.57812 8.0625C10.526 7.52083 11.2812 6.90625 11.8438 6.21875L10.4062 5.03125C9.98958 5.53125 9.41146 5.98958 8.67188 6.40625C7.93229 6.82292 7.25 7.08333 6.625 7.1875L6.875 9.0625ZM19.125 9.0625L19.375 7.1875C18.75 7.08333 18.0677 6.82292 17.3281 6.40625C16.5885 5.98958 16.0104 5.53125 15.5938 5.03125L14.1562 6.21875C14.7188 6.90625 15.474 7.52083 16.4219 8.0625C17.3698 8.60417 18.2708 8.9375 19.125 9.0625ZM13 25C11.2708 25 9.64583 24.6719 8.125 24.0156C6.60417 23.3594 5.28125 22.4688 4.15625 21.3438C3.03125 20.2188 2.14062 18.8958 1.48438 17.375C0.828125 15.8542 0.5 14.2292 0.5 12.5C0.5 10.7708 0.828125 9.14583 1.48438 7.625C2.14062 6.10417 3.03125 4.78125 4.15625 3.65625C5.28125 2.53125 6.60417 1.64062 8.125 0.984375C9.64583 0.328125 11.2708 0 13 0C14.7292 0 16.3542 0.328125 17.875 0.984375C19.3958 1.64062 20.7188 2.53125 21.8438 3.65625C22.9688 4.78125 23.8594 6.10417 24.5156 7.625C25.1719 9.14583 25.5 10.7708 25.5 12.5C25.5 14.2292 25.1719 15.8542 24.5156 17.375C23.8594 18.8958 22.9688 20.2188 21.8438 21.3438C20.7188 22.4688 19.3958 23.3594 17.875 24.0156C16.3542 24.6719 14.7292 25 13 25ZM13 23.125C15.9661 23.125 18.4785 22.0957 20.5371 20.0371C22.5957 17.9785 23.625 15.4661 23.625 12.5C23.625 9.53385 22.5957 7.02148 20.5371 4.96288C18.4785 2.90429 15.9661 1.875 13 1.875C10.0339 1.875 7.52148 2.90429 5.46287 4.96288C3.40429 7.02148 2.375 9.53385 2.375 12.5C2.375 15.4661 3.40429 17.9785 5.46287 20.0371C7.52148 22.0957 10.0339 23.125 13 23.125Z"/></svg>