<svg xmlns="http://www.w3.org/2000/svg" width="26" height="25" fill="none" viewBox="0 0 26 25"><path fill="#000" d="M17.5625 10.8437C18.0312 10.8437 18.4297 10.6797 18.7578 10.3516C19.0859 10.0234 19.25 9.625 19.25 9.15625C19.25 8.6875 19.0859 8.28906 18.7578 7.96094C18.4297 7.63281 18.0312 7.46875 17.5625 7.46875C17.0937 7.46875 16.6953 7.63281 16.3672 7.96094C16.0391 8.28906 15.875 8.6875 15.875 9.15625C15.875 9.625 16.0391 10.0234 16.3672 10.3516C16.6953 10.6797 17.0937 10.8437 17.5625 10.8437ZM8.4375 10.8437C8.90625 10.8437 9.30469 10.6797 9.63281 10.3516C9.96094 10.0234 10.125 9.625 10.125 9.15625C10.125 8.6875 9.96094 8.28906 9.63281 7.96094C9.30469 7.63281 8.90625 7.46875 8.4375 7.46875C7.96875 7.46875 7.57031 7.63281 7.24219 7.96094C6.91406 8.28906 6.75 8.6875 6.75 9.15625C6.75 9.625 6.91406 10.0234 7.24219 10.3516C7.57031 10.6797 7.96875 10.8437 8.4375 10.8437ZM9.0625 16.9062H16.9687V15.375H9.0625V16.9062ZM13 25C11.2708 25 9.64583 24.6719 8.125 24.0156C6.60417 23.3594 5.28125 22.4687 4.15625 21.3437C3.03125 20.2187 2.14062 18.8958 1.48437 17.375C0.828125 15.8542 0.5 14.2292 0.5 12.5C0.5 10.7708 0.828125 9.14583 1.48437 7.625C2.14062 6.10417 3.03125 4.78125 4.15625 3.65625C5.28125 2.53125 6.60417 1.64062 8.125 0.984375C9.64583 0.328125 11.2708 0 13 0C14.7292 0 16.3542 0.328125 17.875 0.984375C19.3958 1.64062 20.7187 2.53125 21.8437 3.65625C22.9687 4.78125 23.8594 6.10417 24.5156 7.625C25.1719 9.14583 25.5 10.7708 25.5 12.5C25.5 14.2292 25.1719 15.8542 24.5156 17.375C23.8594 18.8958 22.9687 20.2187 21.8437 21.3437C20.7187 22.4687 19.3958 23.3594 17.875 24.0156C16.3542 24.6719 14.7292 25 13 25ZM13 23.125C15.9661 23.125 18.4785 22.0957 20.5371 20.0371C22.5957 17.9785 23.625 15.4661 23.625 12.5C23.625 9.53385 22.5957 7.02148 20.5371 4.96287C18.4785 2.90429 15.9661 1.875 13 1.875C10.0339 1.875 7.52148 2.90429 5.46287 4.96287C3.40429 7.02148 2.375 9.53385 2.375 12.5C2.375 15.4661 3.40429 17.9785 5.46287 20.0371C7.52148 22.0957 10.0339 23.125 13 23.125Z"/></svg>