<svg width="25" height="25" viewBox="0 0 25 25" fill="none" xmlns="http://www.w3.org/2000/svg">
<path d="M17.0625 10.8438C17.5312 10.8438 17.9297 10.6797 18.2578 10.3516C18.5859 10.0234 18.75 9.625 18.75 9.15625C18.75 8.6875 18.5859 8.28906 18.2578 7.96094C17.9297 7.63281 17.5312 7.46875 17.0625 7.46875C16.5938 7.46875 16.1953 7.63281 15.8672 7.96094C15.5391 8.28906 15.375 8.6875 15.375 9.15625C15.375 9.625 15.5391 10.0234 15.8672 10.3516C16.1953 10.6797 16.5938 10.8438 17.0625 10.8438ZM7.9375 10.8438C8.40625 10.8438 8.80469 10.6797 9.13281 10.3516C9.46094 10.0234 9.625 9.625 9.625 9.15625C9.625 8.6875 9.46094 8.28906 9.13281 7.96094C8.80469 7.63281 8.40625 7.46875 7.9375 7.46875C7.46875 7.46875 7.07031 7.63281 6.74219 7.96094C6.41406 8.28906 6.25 8.6875 6.25 9.15625C6.25 9.625 6.41406 10.0234 6.74219 10.3516C7.07031 10.6797 7.46875 10.8438 7.9375 10.8438ZM8.5625 16.9062H16.4688V15.375H8.5625V16.9062ZM12.5 25C10.7708 25 9.14583 24.6719 7.625 24.0156C6.10417 23.3594 4.78125 22.4688 3.65625 21.3438C2.53125 20.2188 1.64062 18.8958 0.984375 17.375C0.328125 15.8542 0 14.2292 0 12.5C0 10.7708 0.328125 9.14583 0.984375 7.625C1.64062 6.10417 2.53125 4.78125 3.65625 3.65625C4.78125 2.53125 6.10417 1.64062 7.625 0.984375C9.14583 0.328125 10.7708 0 12.5 0C14.2292 0 15.8542 0.328125 17.375 0.984375C18.8958 1.64062 20.2188 2.53125 21.3438 3.65625C22.4688 4.78125 23.3594 6.10417 24.0156 7.625C24.6719 9.14583 25 10.7708 25 12.5C25 14.2292 24.6719 15.8542 24.0156 17.375C23.3594 18.8958 22.4688 20.2188 21.3438 21.3438C20.2188 22.4688 18.8958 23.3594 17.375 24.0156C15.8542 24.6719 14.2292 25 12.5 25ZM12.5 23.125C15.4661 23.125 17.9785 22.0957 20.0371 20.0371C22.0957 17.9785 23.125 15.4661 23.125 12.5C23.125 9.53385 22.0957 7.02148 20.0371 4.96288C17.9785 2.90429 15.4661 1.875 12.5 1.875C9.53385 1.875 7.02148 2.90429 4.96287 4.96288C2.90429 7.02148 1.875 9.53385 1.875 12.5C1.875 15.4661 2.90429 17.9785 4.96287 20.0371C7.02148 22.0957 9.53385 23.125 12.5 23.125Z" fill="black"/>
</svg>
