<svg width="25" height="25" viewBox="0 0 25 25" fill="none" xmlns="http://www.w3.org/2000/svg">
<path d="M11.625 20H13.375C14.5208 20 15.4948 19.6354 16.2969 18.9062C17.099 18.1771 17.5 17.2917 17.5 16.25C17.5 15.2083 17.099 14.3229 16.2969 13.5938C15.4948 12.8646 14.5208 12.5 13.375 12.5H11.625C10.4792 12.5 9.50521 12.8646 8.70312 13.5938C7.90104 14.3229 7.5 15.2083 7.5 16.25C7.5 17.2917 7.90104 18.1771 8.70312 18.9062C9.50521 19.6354 10.4792 20 11.625 20ZM11.625 18.125C11 18.125 10.4688 17.9427 10.0312 17.5781C9.59375 17.2135 9.375 16.7708 9.375 16.25C9.375 15.7292 9.59375 15.2865 10.0312 14.9219C10.4688 14.5573 11 14.375 11.625 14.375H13.375C14 14.375 14.5312 14.5573 14.9688 14.9219C15.4062 15.2865 15.625 15.7292 15.625 16.25C15.625 16.7708 15.4062 17.2135 14.9688 17.5781C14.5312 17.9427 14 18.125 13.375 18.125H11.625ZM5 10H7.5C8.54167 10 9.42708 9.63542 10.1562 8.90625C10.8854 8.17708 11.25 7.29167 11.25 6.25H9.375C9.375 6.77083 9.19271 7.21354 8.82812 7.57812C8.46354 7.94271 8.02083 8.125 7.5 8.125H5V10ZM17.5 10H20V8.125H17.5C16.9792 8.125 16.5365 7.94271 16.1719 7.57812C15.8073 7.21354 15.625 6.77083 15.625 6.25H13.75C13.75 7.29167 14.1146 8.17708 14.8438 8.90625C15.5729 9.63542 16.4583 10 17.5 10ZM12.5 25C10.7708 25 9.14583 24.6719 7.625 24.0156C6.10417 23.3594 4.78125 22.4688 3.65625 21.3438C2.53125 20.2188 1.64062 18.8958 0.984375 17.375C0.328125 15.8542 0 14.2292 0 12.5C0 10.7708 0.328125 9.14583 0.984375 7.625C1.64062 6.10417 2.53125 4.78125 3.65625 3.65625C4.78125 2.53125 6.10417 1.64062 7.625 0.984375C9.14583 0.328125 10.7708 0 12.5 0C14.2292 0 15.8542 0.328125 17.375 0.984375C18.8958 1.64062 20.2188 2.53125 21.3438 3.65625C22.4688 4.78125 23.3594 6.10417 24.0156 7.625C24.6719 9.14583 25 10.7708 25 12.5C25 14.2292 24.6719 15.8542 24.0156 17.375C23.3594 18.8958 22.4688 20.2188 21.3438 21.3438C20.2188 22.4688 18.8958 23.3594 17.375 24.0156C15.8542 24.6719 14.2292 25 12.5 25ZM12.5 23.125C15.4661 23.125 17.9785 22.0957 20.0371 20.0371C22.0957 17.9785 23.125 15.4661 23.125 12.5C23.125 9.53385 22.0957 7.02148 20.0371 4.96288C17.9785 2.90429 15.4661 1.875 12.5 1.875C9.53385 1.875 7.02148 2.90429 4.96287 4.96288C2.90429 7.02148 1.875 9.53385 1.875 12.5C1.875 15.4661 2.90429 17.9785 4.96287 20.0371C7.02148 22.0957 9.53385 23.125 12.5 23.125Z" fill="black"/>
</svg>
