<svg xmlns="http://www.w3.org/2000/svg" width="26" height="25" fill="none" viewBox="0 0 26 25"><path fill="#000" d="M13 14.4688C11.6042 14.4688 10.3385 14.8594 9.20312 15.6406C8.06771 16.4219 7.22917 17.4583 6.6875 18.75H19.3125C18.7917 17.4375 17.9583 16.3958 16.8125 15.625C15.6667 14.8542 14.3958 14.4688 13 14.4688ZM7.28125 12.2188L8.84375 10.8125L10.25 12.2188L11.2188 11.0938L9.8125 9.6875L11.2188 8.28125L10.25 7.15625L8.84375 8.5625L7.28125 7.15625L6.3125 8.28125L7.71875 9.6875L6.3125 11.0938L7.28125 12.2188ZM15.7812 12.2188L17.1562 10.8125L18.75 12.2188L19.7188 11.0938L18.3125 9.6875L19.7188 8.28125L18.75 7.15625L17.1562 8.5625L15.7812 7.15625L14.8125 8.28125L16.1875 9.6875L14.8125 11.0938L15.7812 12.2188ZM13 25C11.2708 25 9.64583 24.6719 8.125 24.0156C6.60417 23.3594 5.28125 22.4688 4.15625 21.3438C3.03125 20.2188 2.14062 18.8958 1.48438 17.375C0.828125 15.8542 0.5 14.2292 0.5 12.5C0.5 10.7708 0.828125 9.14583 1.48438 7.625C2.14062 6.10417 3.03125 4.78125 4.15625 3.65625C5.28125 2.53125 6.60417 1.64062 8.125 0.984375C9.64583 0.328125 11.2708 0 13 0C14.7292 0 16.3542 0.328125 17.875 0.984375C19.3958 1.64062 20.7188 2.53125 21.8438 3.65625C22.9688 4.78125 23.8594 6.10417 24.5156 7.625C25.1719 9.14583 25.5 10.7708 25.5 12.5C25.5 14.2292 25.1719 15.8542 24.5156 17.375C23.8594 18.8958 22.9688 20.2188 21.8438 21.3438C20.7188 22.4688 19.3958 23.3594 17.875 24.0156C16.3542 24.6719 14.7292 25 13 25ZM13 23.125C15.9583 23.125 18.4688 22.0938 20.5312 20.0312C22.5938 17.9688 23.625 15.4583 23.625 12.5C23.625 9.54167 22.5938 7.03125 20.5312 4.96875C18.4688 2.90625 15.9583 1.875 13 1.875C10.0417 1.875 7.53125 2.90625 5.46875 4.96875C3.40625 7.03125 2.375 9.54167 2.375 12.5C2.375 15.4583 3.40625 17.9688 5.46875 20.0312C7.53125 22.0938 10.0417 23.125 13 23.125Z"/></svg>