<svg xmlns="http://www.w3.org/2000/svg" id="accurate" data-name="Layer 1" viewBox="0 0 168 168"><circle cx="2" cy="147" r="2" fill="#2d4356"/><path fill="#2d4356" d="M11 145H8a2 2 0 0 0 0 4h3a2 2 0 0 0 0-4zm149 0h-3a2 2 0 0 0 0 4h3a2 2 0 0 0 0-4z"/><circle cx="166" cy="147" r="2" fill="#2d4356"/><path fill="#0bceb2" d="M118.154 153h-8.308a2.006 2.006 0 0 0 0 4h8.308a2.006 2.006 0 0 0 0-4zm-60 0h-8.308a2.006 2.006 0 0 0 0 4h8.308a2.006 2.006 0 0 0 0-4zM104 153H64a2 2 0 0 0 0 4h15.94v2H72a2 2 0 0 0 0 4h25a2 2 0 0 0 0-4h-8.94v-2H104a2 2 0 0 0 0-4zM68.883 59.444a33.036 33.036 0 1 0 4.834-10.984l3.767 1.6a28.855 28.855 0 1 1-4.863 10.973z"/><path fill="#2d4356" d="M82.099 65.06A19 19 0 1 0 101 48a18.932 18.932 0 0 0-13.938 6.132l3.973 1.688A14.978 14.978 0 1 1 86 67c0-.093.013-.183.014-.275Z"/><path fill="#0bceb2" d="m21.218 34.84 2.029.863-2.406 1.71a2 2 0 0 0 .31 3.441l10.56 4.956a2.044 2.044 0 0 0 2.008-.18l4.82-3.428 58.853 25.013-3.817.83a2 2 0 0 0-1.529 2.38 2.067 2.067 0 0 0 2.38 1.529l10-2.177a2 2 0 0 0 1.26-3.03l-4.999-7.824a2 2 0 0 0-3.37 2.153l1.542 2.416-59.211-25.165-1.295-5.806a2 2 0 0 0-1.102-1.376L26.69 26.19a2 2 0 0 0-2.802 2.246l.787 3.529-1.893-.805a2 2 0 1 0-1.565 3.682Zm13.445-.49.458 2.052-5.918-2.514-.523-2.347Zm-7.096 3.189 6.652 2.827-1.866 1.327-6.402-3.005Z"/><path fill="#2d4356" d="M150.721 145H133.75l-14.59-34.653a46.995 46.995 0 1 0-58.497-67.435l3.718 1.58a42.986 42.986 0 1 1-4.802 10.997l-3.71-1.576a46.942 46.942 0 0 0 25.292 55.68L66.25 145H17.28a2.017 2.017 0 1 0 0 4H150.72a2.017 2.017 0 1 0 0-4zm-65.873-33.86a46.974 46.974 0 0 0 30.554.594L129.41 145H70.591zm76.957-94.64a3 3 0 1 0-3-3 3.003 3.003 0 0 0 3 3zm0-4.5a1.5 1.5 0 1 1-1.5 1.5 1.501 1.501 0 0 1 1.5-1.5zm1.445 45.75a2 2 0 1 0 2 2 2.002 2.002 0 0 0-2-2zm0 3a1 1 0 1 1 1-1 1.001 1.001 0 0 1-1 1zM5.5 2.25a2 2 0 1 0 2 2 2.002 2.002 0 0 0-2-2zm0 3a1 1 0 1 1 1-1 1.001 1.001 0 0 1-1 1zM95 3a2 2 0 1 0 2 2 2.002 2.002 0 0 0-2-2zm0 3a1 1 0 1 1 1-1 1.001 1.001 0 0 1-1 1zM38.305 18.25a2 2 0 1 0-2 2 2.002 2.002 0 0 0 2-2zm-3 0a1 1 0 1 1 1 1 1.001 1.001 0 0 1-1-1z"/><path fill="#0bceb2" d="m5.423 45.718 1.487-1.956-.939-.532-.954 2.19h-.032l-.97-2.174-.955.547 1.471 1.909v.032l-2.301-.298V46.5l2.316-.297v.031L3.06 48.143l.892.563L4.969 46.5H5l.939 2.191.986-.564-1.502-1.877v-.032l2.362.282v-1.064l-2.362.313v-.031zM136.248 4.219l-.857 1.099.514.324.586-1.27h.018l.54 1.261.568-.324-.865-1.081V4.21l1.361.162v-.613l-1.361.18v-.018l.857-1.126-.541-.306-.55 1.261h-.018l-.558-1.252-.551.315.848 1.099v.018l-1.325-.171v.613l1.334-.171v.018zM153.055 37.963V36.92l-2.317.307v-.031l1.458-1.918-.921-.522-.936 2.148h-.031l-.951-2.133-.937.538 1.443 1.872v.031l-2.257-.292v1.043l2.272-.291v.031l-1.458 1.872.875.553.998-2.165h.03l.921 2.149.967-.552-1.473-1.842v-.031l2.317.276zM65.25 22.128l1.257-1.654-.794-.45-.807 1.853h-.027l-.821-1.84-.808.463 1.245 1.615v.027l-1.947-.252v.9l1.96-.251v.026L63.25 24.18l.755.477.861-1.867h.026l.794 1.853.834-.476-1.27-1.589v-.026l1.998.238v-.9l-1.998.265v-.027z"/></svg>