<svg xmlns="http://www.w3.org/2000/svg" id="co-founder" enable-background="new 0 0 64 64" viewBox="0 0 64 64"><path fill="#f4b2b0" d="M23.293 16.707l-.586.586C22.254 17.746 22 18.36 22 19v0c0 .64.254 1.254.707 1.707l4.586 4.586C27.746 25.746 28.36 26 29 26h0c.64 0 1.254-.254 1.707-.707l.586-.586C31.746 24.254 32 23.64 32 23v0c0-.64-.254-1.254-.707-1.707l-4.586-4.586C26.254 16.254 25.64 16 25 16h0C24.36 16 23.746 16.254 23.293 16.707zM43 13l-2 1-2.73 3.41c-.12-.16-.26-.31-.41-.45l-4-3.67-.01-.01-1.14.69C31.59 14.64 30.31 15 29 15c-.55 0-1.05-.22-1.41-.59C27.22 14.05 27 13.55 27 13c0-.63.3-1.22.8-1.6L31 9h4l2-2L43 13zM56 35v4c0 3.314-2.686 6-6 6h0c-3.314 0-6-2.686-6-6v-4h0c1.921 0 3.763-.763 5.121-2.122L49.999 32l.879.879C52.237 34.237 54.079 35 56 35L56 35zM21 35v4c0 3.314-2.686 6-6 6h0c-3.314 0-6-2.686-6-6v-4h3.838c1.888 0 3.565-1.208 4.162-3l0 0L21 35z"/><path fill="#b3404a" d="M4 55v7c0 .552.448 1 1 1h20c.552 0 1-.448 1-1v-7c.552 0 1-.448 1-1v-1c0-3.993-2.705-7.457-6.578-8.425l-.913-.228c.758-.641 1.374-1.441 1.806-2.346H22.5c1.93 0 3.5-1.57 3.5-3.5 0-1.391-.822-2.585-2-3.149V32c0-1.897-1.327-3.489-3.102-3.898C20.489 26.327 18.897 25 17 25h-5c-3.309 0-6 2.691-6 6v4.351c-1.178.564-2 1.758-2 3.149C4 40.43 5.57 42 7.5 42h1.185c.432.905 1.048 1.706 1.806 2.346l-.913.228C5.705 45.543 3 49.007 3 53v1C3 54.552 3.448 55 4 55zM6 55h2v6H6V55zM24 61h-2v-6h2V61zM22.5 40h-.58c.047-.328.08-.66.08-1v-2h.5c.827 0 1.5.673 1.5 1.5S23.327 40 22.5 40zM8 31c0-2.206 1.794-4 4-4h5c1.103 0 2 .897 2 2 0 .552.448 1 1 1 1.103 0 2 .897 2 2v3c0-.315-.148-.611-.4-.8l-4-3c-.257-.194-.592-.25-.898-.155-.307.096-.549.333-.65.638C15.589 33.069 14.298 34 12.838 34H9c-.552 0-1 .448-1 1V31zM7.5 40C6.673 40 6 39.327 6 38.5S6.673 37 7.5 37H8v2c0 .34.033.672.08 1H7.5zM10 39v-3h2.838c1.865 0 3.558-.955 4.532-2.473L20 35.5V39c0 2.757-2.243 5-5 5S10 41.757 10 39zM16.853 45.743C16.558 46.478 15.84 47 15 47s-1.558-.522-1.853-1.257C13.738 45.906 14.358 46 15 46S16.262 45.906 16.853 45.743zM10.063 46.515l1.149-.287C11.735 47.831 13.225 49 15 49s3.265-1.169 3.787-2.772l1.149.287C22.918 47.26 25 49.927 25 53h-4c-.552 0-1 .448-1 1v7H10v-7c0-.552-.448-1-1-1H5C5 49.927 7.082 47.26 10.063 46.515zM50 25.717C49.289 25.25 48.457 25 47.586 25 43.955 25 41 27.955 41 31.586v3.765c-1.178.564-2 1.758-2 3.149s.822 2.585 2 3.149V42c0 .551-.449 1-1 1-.3 0-.583.134-.773.366-.19.232-.266.537-.207.83l.215 1.078c.262 1.309.948 2.462 1.936 3.308C39.825 50.012 39 51.927 39 54v2c0 .552.448 1 1 1v5c0 .552.448 1 1 1h18c.552 0 1-.448 1-1v-5c.552 0 1-.448 1-1v-2c0-2.073-.825-3.988-2.171-5.418.988-.846 1.674-1.999 1.936-3.308l.215-1.078c.059-.293-.017-.598-.207-.83C60.583 43.134 60.299 43 60 43c-.551 0-1-.449-1-1v-.351c1.178-.564 2-1.758 2-3.149s-.822-2.585-2-3.149v-3.765C59 27.955 56.045 25 52.414 25 51.543 25 50.711 25.25 50 25.717zM56.315 42H57c0 1.239.754 2.304 1.828 2.762l-.024.12c-.197.985-.772 1.82-1.578 2.389-.902-.56-1.923-.951-3.024-1.109L54 46.133v-1.396C54.991 44.043 55.79 43.1 56.315 42zM52 46.723l-2 3.333-2-3.333v-1.018C48.634 45.895 49.305 46 50 46s1.366-.105 2-.295V46.723zM55 39c0 2.757-2.243 5-5 5s-5-2.243-5-5v-3.06c1.823-.219 3.51-1.036 4.829-2.355L50 33.414l.172.172c1.318 1.318 3.005 2.135 4.829 2.354V39zM46 44.736v1.396l-.202.029c-1.101.157-2.121.548-3.024 1.108-.807-.569-1.381-1.404-1.578-2.388l-.024-.12C42.246 44.304 43 43.239 43 42h.685C44.21 43.1 45.009 44.043 46 44.736zM42.5 37H43v2c0 .34.033.672.08 1H42.5c-.827 0-1.5-.673-1.5-1.5S41.673 37 42.5 37zM42 57h1.127c.105.522.271 1.031.509 1.507L44 59.236V61h-2V57zM58 61h-2v-1.764l.364-.729c.238-.476.404-.986.509-1.507H58V61zM59 55h-2.066c-.05-.369-.125-.734-.244-1.089l-.742-2.228-1.897.633.742 2.228C54.931 54.954 55 55.381 55 55.815c0 .621-.147 1.242-.425 1.798l-.47.94C54.036 58.692 54 58.845 54 59v2h-8v-2c0-.155-.036-.308-.105-.447l-.47-.94C45.147 57.057 45 56.436 45 55.815c0-.434.069-.861.207-1.271l.742-2.227-1.897-.633-.742 2.227c-.119.355-.193.721-.244 1.09H41v-1c0-2.926 2.184-5.445 5.081-5.859l.403-.058 2.659 4.431C49.323 52.816 49.649 53 50 53s.677-.184.857-.485l2.659-4.431.403.058C56.816 48.555 59 51.074 59 54V55zM57.5 40h-.58c.047-.328.08-.66.08-1v-2h.5c.827 0 1.5.673 1.5 1.5S58.327 40 57.5 40zM57 31.586V35c0-.552-.448-1-1-1-1.668 0-3.235-.649-4.415-1.829l-.879-.879c-.374-.374-1.039-.375-1.415 0l-.877.878C47.235 33.351 45.667 34 44 34c-.552 0-1 .448-1 1v-3.414C43 29.057 45.057 27 47.586 27c.635 0 1.258.258 1.707.707.391.391 1.023.391 1.414 0C51.156 27.258 51.779 27 52.414 27 54.943 27 57 29.057 57 31.586zM18.293 15.707C18.488 15.902 18.744 16 19 16s.512-.098.707-.293l.261-.261 1.574 1.717C21.192 17.706 21 18.337 21 19c0 .912.355 1.77 1 2.414L26.586 26c.645.645 1.502 1 2.414 1 .58 0 1.131-.158 1.627-.429C31.224 26.852 31.876 27 32.545 27c1.206 0 2.339-.469 3.191-1.322l2.942-2.942C39.531 21.884 40 20.75 40 19.545c0-.722-.192-1.419-.516-2.05l2.159-2.699 1.159-.58 1.49 1.49C44.488 15.902 44.744 16 45 16s.512-.098.707-.293l4-4c.391-.391.391-1.023 0-1.414l-9-9c-.391-.391-1.023-.391-1.414 0l-4 4c-.391.391-.391 1.023 0 1.414L35.586 7l-1 1H31c-.216 0-.427.07-.6.2l-.336.252-1.618-1.484.261-.261c.391-.391.391-1.023 0-1.414l-4-4c-.391-.391-1.023-.391-1.414 0l-9 9c-.391.391-.391 1.023 0 1.414L18.293 15.707zM28 24.586L23.414 20C23.151 19.737 23 19.372 23 19s.151-.737.414-1L24 17.414C24.263 17.151 24.628 17 25 17s.737.151 1 .414L30.586 22C30.849 22.263 31 22.628 31 23s-.151.737-.414 1L30 24.586C29.474 25.112 28.526 25.112 28 24.586zM40 3.414L47.586 11 45 13.586 37.414 6 40 3.414zM31.333 10H35c.265 0 .52-.105.707-.293L37 8.414l4.312 4.312-.759.38c-.129.065-.243.157-.333.27l-2.024 2.53-2.675-2.452.993-.596-1.029-1.715L32.2 13.113C31.233 13.693 30.127 14 29 14c-.551 0-1-.449-1-1 0-.313.149-.612.4-.8L31.333 10zM28.436 9.673L27.199 10.6C26.448 11.164 26 12.061 26 13c0 1.654 1.346 3 3 3 1.489 0 2.952-.405 4.229-1.172l.502-.301 3.454 3.166C37.703 18.167 38 18.842 38 19.545c0 .671-.261 1.302-.736 1.777l-2.942 2.942c-.518.519-1.251.766-1.966.717C32.769 24.406 33 23.723 33 23c0-.912-.355-1.77-1-2.414L27.414 16c-1.182-1.183-3.165-1.268-4.481-.28l-1.549-1.69 5.646-5.646L28.436 9.673zM24 3.414L26.586 6 19 13.586 16.414 11 24 3.414z"/><path fill="#b3404a" d="M13 19h6v-2h-7c-.552 0-1 .448-1 1v5h2V19zM42 19h9v4h2v-5c0-.552-.448-1-1-1H42V19z"/></svg>