<svg xmlns="http://www.w3.org/2000/svg" width="24" height="24" fill="none" viewBox="0 0 24 24" id="live-streaming"><path fill="url(#paint0_linear_1233_4651)" fill-rule="evenodd" d="M6.69609 6.70772C7.08695 6.31753 7.0875 5.68437 6.69731 5.29351C6.30713 4.90264 5.67396 4.90209 5.2831 5.29228C1.5723 8.99665 1.5723 15.0033 5.2831 18.7077C5.67396 19.0979 6.30713 19.0974 6.69731 18.7065C7.0875 18.3156 7.08695 17.6825 6.69609 17.2923C3.76797 14.3692 3.76797 9.63076 6.69609 6.70772ZM18.7169 5.29228C18.326 4.90209 17.6929 4.90264 17.3027 5.29351C16.9125 5.68437 16.9131 6.31753 17.3039 6.70772C20.232 9.63076 20.232 14.3692 17.3039 17.2923C16.9131 17.6825 16.9125 18.3156 17.3027 18.7065C17.6929 19.0974 18.326 19.0979 18.7169 18.7077C22.4277 15.0033 22.4277 8.99665 18.7169 5.29228ZM8.80801 7.28302C9.20399 7.66802 9.21289 8.30112 8.82789 8.6971C7.05737 10.5181 7.05737 13.4819 8.82789 15.3029C9.21289 15.6989 9.20399 16.332 8.80801 16.717C8.41203 17.102 7.77893 17.0931 7.39394 16.6971C4.86869 14.0998 4.86869 9.90017 7.39394 7.3029C7.77893 6.90693 8.41203 6.89803 8.80801 7.28302ZM15.192 7.28302C15.588 6.89803 16.2211 6.90693 16.6061 7.3029C19.1313 9.90017 19.1313 14.0998 16.6061 16.6971C16.2211 17.0931 15.588 17.102 15.192 16.717C14.796 16.332 14.7871 15.6989 15.1721 15.3029C16.9426 13.4819 16.9426 10.5181 15.1721 8.6971C14.7871 8.30112 14.796 7.66802 15.192 7.28302ZM12 10.5C11.1716 10.5 10.5 11.1716 10.5 12C10.5 12.8284 11.1716 13.5 12 13.5C12.8284 13.5 13.5 12.8284 13.5 12C13.5 11.1716 12.8284 10.5 12 10.5ZM8.5 12C8.5 10.067 10.067 8.5 12 8.5C13.933 8.5 15.5 10.067 15.5 12C15.5 13.933 13.933 15.5 12 15.5C10.067 15.5 8.5 13.933 8.5 12Z" clip-rule="evenodd"></path><defs><linearGradient id="paint0_linear_1233_4651" x1="12" x2="12" y1="5" y2="19" gradientUnits="userSpaceOnUse"><stop stop-color="#57EAEA"></stop><stop offset="1" stop-color="#2BC9FF"></stop></linearGradient></defs></svg>