<svg xmlns="http://www.w3.org/2000/svg" width="64" height="64" enable-background="new 0 0 64 64" viewBox="0 0 64 64" id="model"><path fill="#2D2F64" d="M52.111,43.859c4.15-4.811,6.429-10.91,6.429-17.311C58.54,11.908,46.633,0,32,0S5.459,11.908,5.459,26.549
		c0,6.4,2.279,12.5,6.438,17.32c-4.257,2.297-6.594,6.398-6.594,11.713v7.447C5.304,63.563,5.74,64,6.273,64h51.452
		c0.533,0,0.971-0.438,0.971-0.971v-7.447C58.696,50.24,56.339,46.119,52.111,43.859z M7.398,26.549
		C7.398,12.975,18.434,1.939,32,1.939c13.565,0,24.601,11.035,24.601,24.609c0,6.119-2.249,11.938-6.332,16.467
		c-1.629-0.65-3.441-1.367-5.323-1.9c-0.456-0.146-0.882-0.311-1.251-0.486c-1.697-0.795-2.89-1.996-3.559-3.578
		c1.755-2.074,3.181-4.838,4.111-8.105c0.213-0.738,0.397-1.514,0.553-2.309c0.96-4.809-0.718-9.58-4.383-12.451
		c-1.184-0.92-2.521-1.639-3.947-2.133c-1.425-0.484-2.938-0.736-4.47-0.736c-3.423,0-6.672,1.24-9.145,3.49
		c-3.181,2.891-4.548,7.293-3.665,11.781c0.164,0.805,0.349,1.602,0.571,2.367c0.922,3.258,2.356,6.012,4.103,8.096
		c-0.669,1.582-1.853,2.783-3.54,3.578c-0.378,0.176-0.805,0.33-1.231,0.477c-1.91,0.543-3.733,1.26-5.353,1.91
		C9.648,38.486,7.398,32.668,7.398,26.549z M42.899,26.26c-0.146,0.736-0.32,1.463-0.514,2.152
		c-1.9,6.672-5.974,10.977-10.386,10.977s-8.476-4.305-10.376-10.967c-0.204-0.709-0.378-1.455-0.523-2.201
		c-0.757-3.82,0.388-7.555,3.055-9.979c2.123-1.92,4.906-2.986,7.845-2.986c2.628,0,5.197,0.873,7.214,2.453c0,0,0,0,0,0.01
		C42.308,18.123,43.714,22.166,42.899,26.26z M32,41.328c2.405,0,4.703-1,6.7-2.793c0.814,1.523,2.047,2.725,3.686,3.598
		L31.99,47.068l-10.376-4.936c1.639-0.873,2.87-2.074,3.685-3.598C27.297,40.32,29.595,41.328,32,41.328z M56.757,62.061H7.243
		v-6.479c0-3.52,1.154-8.193,6.711-10.559c0.028-0.02,0.077-0.029,0.116-0.049l0.106-0.049c1.871-0.746,3.365-1.318,4.984-1.814
		l12.412,5.906c0.136,0.068,0.271,0.098,0.417,0.098s0.281-0.029,0.417-0.088l12.432-5.916c1.765,0.535,3.471,1.203,4.955,1.795
		l0.146,0.068c0.038,0.02,0.087,0.029,0.204,0.086c0.009,0.01,0.009,0.01,0.02,0.01c0,0,0,0,0.009,0.01
		c5.44,2.318,6.585,6.982,6.585,10.502V62.061z"></path><path fill="#ECC35F" d="M56.757,55.582v6.479H7.243v-6.479c0-3.52,1.154-8.193,6.711-10.559c0.028-0.02,0.077-0.029,0.116-0.049
		l0.106-0.049c1.871-0.746,3.365-1.318,4.984-1.814l12.412,5.906c0.136,0.068,0.271,0.098,0.417,0.098s0.281-0.029,0.417-0.088
		l12.432-5.916c1.765,0.535,3.471,1.203,4.955,1.795l0.146,0.068c0.038,0.02,0.087,0.029,0.204,0.086
		c0.009,0.01,0.009,0.01,0.02,0.01c0,0,0,0,0.009,0.01C55.612,47.398,56.757,52.063,56.757,55.582z"></path><path fill="#2AB1D4" d="M56.601,26.549c0,6.119-2.249,11.938-6.332,16.467c-1.629-0.65-3.441-1.367-5.323-1.9
		c-0.456-0.146-0.882-0.311-1.251-0.486c-1.697-0.795-2.89-1.996-3.559-3.578c1.755-2.074,3.181-4.838,4.111-8.105
		c0.213-0.738,0.397-1.514,0.553-2.309c0.96-4.809-0.718-9.58-4.383-12.451c-1.184-0.92-2.521-1.639-3.947-2.133
		c-1.425-0.484-2.938-0.736-4.47-0.736c-3.423,0-6.672,1.24-9.145,3.49c-3.181,2.891-4.548,7.293-3.665,11.781
		c0.164,0.805,0.349,1.602,0.571,2.367c0.922,3.258,2.356,6.012,4.103,8.096c-0.669,1.582-1.853,2.783-3.54,3.578
		c-0.378,0.176-0.805,0.33-1.231,0.477c-1.91,0.543-3.733,1.26-5.353,1.91c-4.092-4.529-6.342-10.348-6.342-16.467
		C7.398,12.975,18.434,1.939,32,1.939C45.565,1.939,56.601,12.975,56.601,26.549z"></path><path fill="#F3C88C" d="M42.386,42.133L31.99,47.068l-10.376-4.936c1.639-0.873,2.87-2.074,3.685-3.598
		c1.998,1.785,4.296,2.793,6.701,2.793s4.703-1,6.7-2.793C39.515,40.059,40.747,41.26,42.386,42.133z"></path><path fill="#FFE5AB" d="M42.899,26.26c-0.146,0.736-0.32,1.463-0.514,2.152c-1.9,6.672-5.974,10.977-10.386,10.977
		s-8.476-4.305-10.376-10.967c-0.204-0.709-0.378-1.455-0.523-2.201c-0.757-3.82,0.388-7.555,3.055-9.979
		c2.123-1.92,4.906-2.986,7.845-2.986c2.628,0,5.197,0.873,7.214,2.453c0,0,0,0,0,0.01C42.308,18.123,43.714,22.166,42.899,26.26z"></path><path fill="#E2B34A" d="M56.757,55.582v6.479H7.243v-6.479c0-3.52,1.154-8.193,6.711-10.559c0.028-0.02,0.077-0.029,0.116-0.049
		l0.106-0.049c1.871-0.746,3.365-1.318,4.984-1.814l2.929,1.396c-1.241,0.379-3.2,0.824-4.723,1.406l-0.088,0.039
		c-0.028,0.01-0.067,0.02-0.097,0.039c-4.558,1.861-5.508,5.537-5.508,8.301v5.1h40.65v-5.1c0-2.764-0.941-6.439-5.411-8.262
		c0-0.01,0-0.01,0-0.01c-0.01,0-0.01,0-0.02,0c-0.097-0.049-0.136-0.059-0.165-0.068l-0.126-0.059
		c-1.192-0.455-3.345-0.979-4.693-1.387l2.929-1.396c1.765,0.535,3.471,1.203,4.955,1.795l0.146,0.068
		c0.038,0.02,0.087,0.029,0.204,0.086c0.009,0.01,0.009,0.01,0.02,0.01c0,0,0,0,0.009,0.01
		C55.612,47.398,56.757,52.063,56.757,55.582z"></path><path fill="#2999C5" d="M56.601,26.549c0,6.119-2.249,11.938-6.332,16.467c-0.736-0.291-1.502-0.602-2.298-0.893
		c3.364-4.121,5.964-9.348,5.964-14.836c0-12.51-9.833-22.682-21.935-22.682c-12.103,0-21.944,10.172-21.944,22.682
		c0,5.488,2.599,10.715,5.982,14.836c-0.805,0.291-1.57,0.602-2.298,0.893c-4.092-4.529-6.342-10.348-6.342-16.467
		C7.398,12.975,18.434,1.939,32,1.939C45.565,1.939,56.601,12.975,56.601,26.549z"></path><path fill="#F3C88C" d="M39.214,15.719c0-0.01,0-0.01,0-0.01c-2.017-1.58-4.586-2.453-7.214-2.453
		c-2.938,0-5.722,1.066-7.845,2.986c-2.667,2.424-3.812,6.158-3.055,9.979c0.146,0.746,0.319,1.492,0.523,2.201
		c1.9,6.662,5.964,10.967,10.376,10.967s8.485-4.305,10.386-10.977c0.193-0.689,0.368-1.416,0.514-2.152
		C43.714,22.166,42.308,18.123,39.214,15.719z M40.698,26.268c-0.116,0.602-0.252,1.193-0.407,1.756
		c-1.522,5.439-4.771,8.941-8.291,8.941s-6.769-3.502-8.281-8.932c-0.165-0.582-0.301-1.184-0.417-1.793
		c-0.602-3.113,0.311-6.158,2.434-8.137c1.697-1.561,3.918-2.424,6.265-2.424c2.095,0,4.15,0.707,5.76,1.998
		c1.997,1.6,3.122,4.072,3.122,6.729C40.882,25.018,40.824,25.648,40.698,26.268z"></path></svg>