<svg xmlns="http://www.w3.org/2000/svg" id="office-table" viewBox="0 0 80 80"><path d="M59 52h5a1 1 0 1 0 0-2h-5a1 1 0 1 0 0 2zm-.333 8h5a1 1 0 1 0 0-2h-5a1 1 0 1 0 0 2zm4.666 6h-5a1 1 0 1 0 0 2h5a1 1 0 1 0 0-2z"/><path d="M74 5H32a1 1 0 0 0-1 1v5.07a8.009 8.009 0 0 0-1-.07c-4.411 0-8 3.589-8 8s3.589 8 8 8 8-3.589 8-8c0-3.35-2.072-6.221-5-7.411V7h40v28H45.54l-4.777-5.646a.995.995 0 0 0-.567-.334l-4.567-.914a28.516 28.516 0 0 0-11.257 0l-4.568.914a.995.995 0 0 0-.567.334l-8.338 9.854A2.876 2.876 0 0 0 10.36 42H6a1 1 0 0 0-1 1v4a1 1 0 0 0 1 1h2v26a1 1 0 1 0 2 0V48h9v2c0 1.302.839 2.402 2 2.816V55c-1.654 0-3 1.346-3 3 0 1.302.839 2.402 2 2.816V74a1 1 0 1 0 2 0V61h1v11c0 1.654 1.346 3 3 3s3-1.346 3-3V61h2v11c0 1.654 1.346 3 3 3s3-1.346 3-3V61h1v13a1 1 0 1 0 2 0V60.816A2.995 2.995 0 0 0 42 58c0-1.654-1.346-3-3-3v-2.184A2.995 2.995 0 0 0 41 50v-2h10v23a1 1 0 0 0 1 1h18v2a1 1 0 1 0 2 0V48h2a1 1 0 0 0 1-1v-4a1 1 0 0 0-1-1H60v-5h14a1 1 0 0 0 1-1V6a1 1 0 0 0-1-1zM36 19c0 3.309-2.691 6-6 6s-6-2.691-6-6 2.691-6 6-6 6 2.691 6 6zM12.294 41.473a.9.9 0 0 1 .131-.973l8.113-9.588 4.226-.845a26.553 26.553 0 0 1 10.473 0l4.225.845 8.113 9.589a.898.898 0 0 1 .13.972.9.9 0 0 1-.826.527.913.913 0 0 1-.692-.317l-5.23-6.102A2.995 2.995 0 0 0 38 33H22a2.995 2.995 0 0 0-2.958 2.581l-5.228 6.1a.915.915 0 0 1-.693.319.9.9 0 0 1-.827-.527zM41 38.703 43.826 42H41v-3.297zM19 42h-2.826L19 38.703V42zM7 46v-2h12v2H7zm20 26a1.001 1.001 0 0 1-2 0V61h2v11zm8 0a1.001 1.001 0 0 1-2 0V61h2v11zm5-14c0 .552-.449 1-1 1H21a1.001 1.001 0 0 1 0-2h18c.551 0 1 .448 1 1zm-17-3v-2h14v2H23zm16-5c0 .552-.449 1-1 1H22c-.551 0-1-.448-1-1V36c0-.552.449-1 1-1h16c.551 0 1 .448 1 1v14zm31 12H53v-6h17v6zm-17 8v-6h17v6H53zm17-16H53v-6h17v6zm3-8H41v-2h32v2zm-15-4h-8.36c.32-.96.128-2.003-.539-2.791L47.232 37H58v5z"/></svg>