<svg xmlns="http://www.w3.org/2000/svg" viewBox="0 0 80 80" id="world"><path d="M71.37 24.503a1.981 1.981 0 0 0-.395-.77C65.108 12.605 53.428 5 40 5S14.892 12.606 9.025 23.732a1.981 1.981 0 0 0-.396.77C6.31 29.179 5 34.439 5 40s1.31 10.822 3.63 15.497c.074.289.21.548.395.77C14.892 67.395 26.572 75 40 75s25.108-7.606 30.975-18.732c.184-.223.321-.482.396-.77C73.69 50.821 75 45.561 75 40s-1.31-10.822-3.63-15.497zM68.133 53H55.825c.647-3.42 1.045-7.115 1.147-11H70.93a30.76 30.76 0 0 1-2.797 11zM9.072 42h13.956c.102 3.885.5 7.58 1.147 11H11.868A30.76 30.76 0 0 1 9.07 42zm2.796-15h12.307c-.647 3.42-1.045 7.115-1.147 11H9.07a30.76 30.76 0 0 1 2.797-11zM42 23V9.42c3.417 1.393 6.739 6.257 8.822 13.58H42zm9.783 4c.66 3.313 1.082 7.001 1.188 11H42V27h9.783zM38 9.42V23h-8.822C31.26 15.677 34.583 10.813 38 9.42zM38 27v11H27.03c.105-3.999.527-7.687 1.187-11H38zM27.03 42H38v11h-9.783c-.66-3.313-1.082-7.001-1.188-11zM38 57v13.58c-3.417-1.393-6.739-6.257-8.822-13.58H38zm4 13.58V57h8.822C48.74 64.323 45.417 69.187 42 70.58zM42 53V42h10.97c-.105 3.999-.527 7.687-1.187 11H42zm14.972-15c-.102-3.885-.5-7.58-1.147-11h12.307a30.76 30.76 0 0 1 2.797 11H56.972zm8.932-15H54.926c-1.366-5.163-3.346-9.492-5.75-12.613C56.104 12.538 61.994 17.062 65.904 23zm-35.08-12.613c-2.404 3.12-4.384 7.45-5.75 12.613H14.096c3.91-5.938 9.8-10.462 16.728-12.613zM14.096 57h10.978c1.366 5.163 3.346 9.492 5.75 12.613C23.896 67.462 18.006 62.938 14.096 57zm35.08 12.613c2.404-3.12 4.384-7.45 5.75-12.613h10.978c-3.91 5.938-9.8 10.462-16.728 12.613z"></path></svg>